<?xml version="1.0" encoding="UTF-8"?>
<svg width="14px" height="13px" viewBox="0 0 14 13" version="1.1" xmlns="http://www.w3.org/2000/svg" xmlns:xlink="http://www.w3.org/1999/xlink">
    <title>35BB5F61-CD39-42A1-BF41-966C54EFA65C</title>
    <g id="Operator" stroke="none" stroke-width="1" fill="none" fill-rule="evenodd">
        <g id="Create-New-Lot" transform="translate(-948.000000, -186.000000)" fill="#D2D2D2" fill-rule="nonzero">
            <g id="Group" transform="translate(814.250000, 151.481896)">
                <g id="calendar-(3)" transform="translate(133.943456, 35.258170)">
                    <path d="M11.4934579,0 L10.2878505,0 L10.2878505,1.20560748 C10.2878505,1.44672897 10.0869159,1.60747664 9.88598131,1.60747664 C9.68504673,1.60747664 9.48411215,1.44672897 9.48411215,1.20560748 L9.48411215,0 L3.05420561,0 L3.05420561,1.20560748 C3.05420561,1.44672897 2.85327103,1.60747664 2.65233645,1.60747664 C2.45140187,1.60747664 2.25046729,1.44672897 2.25046729,1.20560748 L2.25046729,0 L1.04485981,0 C0.442056075,0 0,0.522429907 0,1.20560748 L0,2.65233645 L12.8598131,2.65233645 L12.8598131,1.20560748 C12.8598131,0.522429907 12.1364486,0 11.4934579,0 Z M0,3.49626168 L0,10.8504673 C0,11.5738318 0.442056075,12.0560748 1.08504673,12.0560748 L11.5336449,12.0560748 C12.1766355,12.0560748 12.9,11.5336449 12.9,10.8504673 L12.9,3.49626168 L0,3.49626168 Z M3.57663551,10.2476636 L2.61214953,10.2476636 C2.45140187,10.2476636 2.29065421,10.1271028 2.29065421,9.92616822 L2.29065421,8.92149533 C2.29065421,8.76074766 2.41121495,8.6 2.61214953,8.6 L3.61682243,8.6 C3.77757009,8.6 3.93831776,8.72056075 3.93831776,8.92149533 L3.93831776,9.92616822 C3.89813084,10.1271028 3.77757009,10.2476636 3.57663551,10.2476636 Z M3.57663551,6.63084112 L2.61214953,6.63084112 C2.45140187,6.63084112 2.29065421,6.51028037 2.29065421,6.30934579 L2.29065421,5.3046729 C2.29065421,5.14392523 2.41121495,4.98317757 2.61214953,4.98317757 L3.61682243,4.98317757 C3.77757009,4.98317757 3.93831776,5.10373832 3.93831776,5.3046729 L3.93831776,6.30934579 C3.89813084,6.51028037 3.77757009,6.63084112 3.57663551,6.63084112 Z M6.79158879,10.2476636 L5.78691589,10.2476636 C5.62616822,10.2476636 5.46542056,10.1271028 5.46542056,9.92616822 L5.46542056,8.92149533 C5.46542056,8.76074766 5.58598131,8.6 5.78691589,8.6 L6.79158879,8.6 C6.95233645,8.6 7.11308411,8.72056075 7.11308411,8.92149533 L7.11308411,9.92616822 C7.11308411,10.1271028 6.99252336,10.2476636 6.79158879,10.2476636 Z M6.79158879,6.63084112 L5.78691589,6.63084112 C5.62616822,6.63084112 5.46542056,6.51028037 5.46542056,6.30934579 L5.46542056,5.3046729 C5.46542056,5.14392523 5.58598131,4.98317757 5.78691589,4.98317757 L6.79158879,4.98317757 C6.95233645,4.98317757 7.11308411,5.10373832 7.11308411,5.3046729 L7.11308411,6.30934579 C7.11308411,6.51028037 6.99252336,6.63084112 6.79158879,6.63084112 Z M10.0065421,10.2476636 L9.00186916,10.2476636 C8.8411215,10.2476636 8.68037383,10.1271028 8.68037383,9.92616822 L8.68037383,8.92149533 C8.68037383,8.76074766 8.80093458,8.6 9.00186916,8.6 L10.0065421,8.6 C10.1672897,8.6 10.3280374,8.72056075 10.3280374,8.92149533 L10.3280374,9.92616822 C10.3280374,10.1271028 10.2074766,10.2476636 10.0065421,10.2476636 Z M10.0065421,6.63084112 L9.00186916,6.63084112 C8.8411215,6.63084112 8.68037383,6.51028037 8.68037383,6.30934579 L8.68037383,5.3046729 C8.68037383,5.14392523 8.80093458,4.98317757 9.00186916,4.98317757 L10.0065421,4.98317757 C10.1672897,4.98317757 10.3280374,5.10373832 10.3280374,5.3046729 L10.3280374,6.30934579 C10.3280374,6.51028037 10.2074766,6.63084112 10.0065421,6.63084112 Z" id="Shape"></path>
                </g>
            </g>
        </g>
    </g>
</svg>