<?xml version="1.0" encoding="UTF-8"?>
<svg width="12px" height="8px" viewBox="0 0 12 8" version="1.1" xmlns="http://www.w3.org/2000/svg" xmlns:xlink="http://www.w3.org/1999/xlink">
    <title>75D07A62-4CF4-4D9B-B318-6D674216E537</title>
    <g id="IT-Admin" stroke="none" stroke-width="1" fill="none" fill-rule="evenodd">
        <g id="Add-New-User-Password" transform="translate(-685.000000, -445.000000)" fill="#4F4F4F" fill-rule="nonzero">
            <g id="Group-20" transform="translate(389.500000, 223.867642)">
                <g id="Group" transform="translate(114.787500, 190.019224)">
                    <g id="view" transform="translate(181.071158, 31.376335)">
                        <circle id="Oval" cx="5.7500289" cy="3.7179415" r="1.77044833"></circle>
                        <path d="M11.3236216,3.22752731 C9.96272218,1.58300212 7.9026949,0 5.7500289,0 C3.59694242,0 1.53642826,1.58410865 0.176436242,3.22752731 C-0.0588120805,3.51168427 -0.0588120805,3.92419873 0.176436242,4.20835569 C0.518354076,4.62153407 1.23516434,5.41912104 2.19253428,6.11601377 C4.60364147,7.87123624 6.89110498,7.8751091 9.30752352,6.11601377 C10.2648935,5.41912104 10.9817037,4.62153407 11.3236216,4.20835569 C11.5581838,3.92475199 11.559401,3.51261375 11.3236216,3.22752731 Z M5.7500289,1.23931383 C7.11681501,1.23931383 8.22865656,2.35115539 8.22865656,3.7179415 C8.22865656,5.08472761 7.11681501,6.19656916 5.7500289,6.19656916 C4.38324279,6.19656916 3.27140123,5.08472761 3.27140123,3.7179415 C3.27140123,2.35115539 4.38324279,1.23931383 5.7500289,1.23931383 Z" id="Shape"></path>
                    </g>
                </g>
            </g>
        </g>
    </g>
</svg>