<?xml version="1.0" encoding="UTF-8"?>
<svg width="14px" height="14px" viewBox="0 0 14 14" version="1.1" xmlns="http://www.w3.org/2000/svg" xmlns:xlink="http://www.w3.org/1999/xlink">
    <title>CB6455EA-8556-4230-B66A-87D4FD33D6A1</title>
    <g id="QA-Admin" stroke="none" stroke-width="1" fill="none" fill-rule="evenodd">
        <g id="Create-Stage-Filled-Out" transform="translate(-1094.000000, -319.000000)" fill="#FFFFFF" fill-rule="nonzero">
            <g id="Group" transform="translate(1083.997279, 310.018104)">
                <path d="M16.515,9.23401869 C20.1075151,9.23401869 23.03,12.1565036 23.03,15.7490187 C23.03,19.3415338 20.1075151,22.2640187 16.515,22.2640187 C12.9224849,22.2640187 10,19.3415338 10,15.7490187 C10,12.1565036 12.9224849,9.23401869 16.515,9.23401869 Z M19.8170361,13.6007468 C19.6046942,13.3884048 19.2616268,13.3884048 19.0493843,13.6007468 L19.0493843,13.6007468 L15.9042188,16.7458129 L14.5235986,15.3651928 C14.3112567,15.1528509 13.9681893,15.1528509 13.7559468,15.3651928 C13.5436049,15.5774353 13.5436049,15.9206021 13.7559468,16.1328446 L13.7559468,16.1328446 L15.5203928,17.8972906 C15.6262656,18.0031634 15.7652421,18.0564477 15.9042188,18.0564477 C16.0431954,18.0564477 16.1821719,18.0031634 16.2880447,17.8972906 L16.2880447,17.8972906 L19.8170361,14.3683986 C20.0292786,14.1560567 20.0292786,13.8129893 19.8170361,13.6007468 Z" id="Selected"></path>
            </g>
        </g>
    </g>
</svg>